<?xml version="1.0" encoding="UTF-8"?><svg xmlns="http://www.w3.org/2000/svg" viewBox="0 0 18 10.8873"><g id="a"/><g id="b"><g id="c"><g><path d="M0,5.3374c.1204-.1913,.2212-.3988,.3642-.5714C1.5759,3.3036,2.9902,2.0797,4.67,1.1804,6.2785,.3193,7.9849-.1245,9.8215,.0305c1.3957,.1178,2.6811,.5755,3.8813,1.2842,1.6263,.9604,2.9497,2.2608,4.1398,3.7084,.2156,.2623,.2081,.5696-.0128,.8527-.7497,.9607-1.6101,1.8124-2.5683,2.5631-1.0807,.8466-2.2524,1.5353-3.5602,1.9724-2.1725,.726-4.3059,.6228-6.3967-.3182-1.3908-.626-2.5887-1.5277-3.6592-2.5998-.5082-.509-.9754-1.0594-1.4527-1.5986C.1071,5.7981,.0632,5.6648,0,5.5484c0-.0703,0-.1406,0-.2109Zm1.4369,.1086c.2828,.3059,.5466,.6044,.8243,.8891,1.0633,1.0902,2.239,2.0278,3.6446,2.6466,1.8979,.8355,3.8148,.8471,5.7398,.1056,1.4702-.5663,2.7318-1.4586,3.8635-2.5409,.3624-.3465,.6998-.7192,1.0619-1.0937-.2902-.3142-.5531-.6125-.8305-.8968-1.0634-1.0898-2.2375-2.0294-3.6432-2.6486-1.7114-.7539-3.4591-.8483-5.2427-.2847-1.1579,.3659-2.1954,.9574-3.1601,1.6847-.8263,.623-1.565,1.3391-2.2578,2.1386Z" fill="#1e1e1e"/><path d="M8.9976,8.6421c-1.7588-.0004-3.1978-1.4407-3.1971-3.2001,.0006-1.7598,1.4403-3.1991,3.199-3.1982,1.7585,.0008,3.1997,1.4426,3.1989,3.2001-.0008,1.7581-1.4425,3.1987-3.2008,3.1983Zm.0137-5.136c-1.0697-.0052-1.939,.8493-1.9484,1.9153-.0095,1.0774,.8499,1.9525,1.9231,1.9582,1.0676,.0057,1.9414-.8528,1.9496-1.9154,.0082-1.0771-.8525-1.953-1.9243-1.9582Z" fill="#1e1e1e"/></g></g></g></svg>