<svg xmlns="http://www.w3.org/2000/svg" viewBox="0 0 16.003 16.003"><path d="M13.233,3.73a.96.96,0,1,1-.96-.96A.96.96,0,0,1,13.233,3.73ZM8,10.669A2.667,2.667,0,1,1,10.669,8,2.667,2.667,0,0,1,8,10.669ZM8,3.893A4.109,4.109,0,1,0,12.11,8,4.109,4.109,0,0,0,8,3.893ZM8,1.442c2.137,0,2.39.008,3.233.047a4.426,4.426,0,0,1,1.486.276,2.479,2.479,0,0,1,.92.6,2.477,2.477,0,0,1,.6.92,4.429,4.429,0,0,1,.276,1.486c.039.844.047,1.1.047,3.233s-.008,2.39-.047,3.233a4.426,4.426,0,0,1-.276,1.486,2.65,2.65,0,0,1-1.519,1.519,4.429,4.429,0,0,1-1.486.276c-.844.039-1.1.047-3.233.047s-2.39-.008-3.233-.047a4.426,4.426,0,0,1-1.486-.276,2.479,2.479,0,0,1-.92-.6,2.479,2.479,0,0,1-.6-.92,4.429,4.429,0,0,1-.276-1.486c-.039-.844-.047-1.1-.047-3.233s.008-2.39.047-3.233a4.426,4.426,0,0,1,.276-1.486,2.479,2.479,0,0,1,.6-.92,2.477,2.477,0,0,1,.92-.6,4.429,4.429,0,0,1,1.486-.276C5.612,1.45,5.865,1.442,8,1.442ZM8,0C5.828,0,5.556.009,4.7.048A5.873,5.873,0,0,0,2.76.42a3.921,3.921,0,0,0-1.417.923A3.921,3.921,0,0,0,.42,2.76,5.874,5.874,0,0,0,.048,4.7C.009,5.556,0,5.828,0,8s.009,2.446.048,3.3A5.874,5.874,0,0,0,.42,13.243a3.921,3.921,0,0,0,.923,1.417,3.923,3.923,0,0,0,1.417.923,5.874,5.874,0,0,0,1.942.372C5.556,15.994,5.828,16,8,16s2.446-.009,3.3-.048a5.874,5.874,0,0,0,1.942-.372,4.092,4.092,0,0,0,2.34-2.34,5.874,5.874,0,0,0,.372-1.942c.039-.853.048-1.126.048-3.3s-.009-2.446-.048-3.3a5.874,5.874,0,0,0-.372-1.942,3.923,3.923,0,0,0-.923-1.417A3.923,3.923,0,0,0,13.243.42,5.874,5.874,0,0,0,11.3.048C10.447.009,10.174,0,8,0Z" fill-rule="evenodd"/></svg>