<?xml version="1.0" encoding="utf-8"?>
<!-- Generator: Adobe Illustrator 26.5.0, SVG Export Plug-In . SVG Version: 6.00 Build 0)  -->
<svg version="1.1" id="uuid-6f2c3112-6c3c-4b12-99cd-dc16b26595dc"
	 xmlns="http://www.w3.org/2000/svg" xmlns:xlink="http://www.w3.org/1999/xlink" x="0px" y="0px" viewBox="0 0 358 93.3"
	 style="enable-background:new 0 0 358 93.3;" xml:space="preserve">
<style type="text/css">
	.st0{fill:#253E8A;}
	.st1{fill:#00AEEF;}
	.st2{fill:#FFFFFF;}
</style>
<g>
	<path class="st0" d="M132.7,43.4C132.7,19.5,103,0,66.3,0S0,19.5,0,43.4c0,0.6,0,2.3,0,2.5c0,25.4,26,45.9,66.3,45.9
		c40.6,0,66.3-20.5,66.3-45.9V43.4z"/>
	<path class="st1" d="M130.1,43.4c0,22.5-28.6,40.8-63.8,40.8S2.6,65.9,2.6,43.4S31.1,2.6,66.4,2.6S130.1,20.8,130.1,43.4z"/>
	<g>
		<path class="st2" d="M45.2,30.5c0,0.1-0.7,0.7-0.3,1.3c1,1.3,4.1,2,7.3,1.3c1.9-0.4,4.3-2.3,6.6-4.2c2.5-2,5-4,7.5-4.8
			c2.7-0.8,4.4-0.5,5.5-0.1c1.2,0.4,2.7,1.2,5,2.9c4.4,3.3,21.9,18.6,24.9,21.2c2.4-1.1,13.3-5.8,28-9c-1.3-7.9-6.1-15.1-13.3-20.9
			c-10.1,4.2-22.5,6.5-34.5,0.6c-0.1,0-6.6-3.1-13.1-3c-9.6,0.2-13.7,4.4-18.1,8.8L45.2,30.5L45.2,30.5z"/>
		<path class="st2" d="M101,49.8c-0.2-0.2-20.6-18.1-25.3-21.5c-2.7-2-4.2-2.5-5.7-2.7c-0.8-0.1-1.9,0-2.7,0.3
			c-2.2,0.6-5,2.5-7.5,4.5c-2.6,2.1-5,4-7.3,4.5c-2.9,0.6-6.4-0.1-8-1.2c-0.7-0.4-1.1-0.9-1.3-1.5c-0.6-1.4,0.5-2.5,0.7-2.7l5.6-6.1
			c0.7-0.7,1.3-1.3,2-2c-1.8,0.2-3.5,0.7-5.1,1.2c-2,0.6-4,1.1-6,1.1c-0.8,0-5.3-0.7-6.1-1c-5.1-1.4-9.6-2.8-16.3-5.9
			c-8,6-13.4,13.4-14.9,21.6c1.2,0.3,3,0.9,3.8,1c18.1,4,23.8,8.2,24.8,9.1c1.1-1.2,2.7-2,4.5-2c2,0,3.8,1,4.9,2.6
			c1-0.8,2.5-1.5,4.3-1.5c0.8,0,1.7,0.2,2.6,0.5c2,0.7,3.1,2.1,3.7,3.3c0.7-0.3,1.5-0.5,2.5-0.5c1,0,2,0.2,3,0.7
			c3.3,1.4,3.9,4.7,3.6,7.2c0.2,0,0.5,0,0.7,0c4,0,7.2,3.2,7.2,7.2c0,1.2-0.3,2.4-0.9,3.4c1.1,0.6,3.8,2,6.2,1.7
			c1.9-0.2,2.7-0.9,2.9-1.3c0.2-0.3,0.4-0.6,0.2-0.8L72,63.1c0,0-0.8-0.8-0.6-1.1c0.3-0.3,0.8,0.1,1.2,0.4c2.6,2.2,5.8,5.5,5.8,5.5
			c0.1,0,0.3,0.5,1.4,0.7c1,0.2,2.8,0.1,4-0.9c0.3-0.3,0.6-0.6,0.9-0.9c0,0,0,0-0.1,0c1.3-1.7-0.1-3.4-0.1-3.4l-6-6.7
			c0,0-0.9-0.8-0.6-1.1c0.3-0.3,0.8,0.1,1.2,0.5c1.9,1.6,4.6,4.3,7.1,6.8c0.5,0.4,2.8,1.8,5.7-0.2c1.8-1.2,2.2-2.6,2.1-3.7
			c-0.1-1.5-1.3-2.5-1.3-2.5l-8.2-8.2c0,0-0.9-0.7-0.6-1.1c0.2-0.3,0.8,0.1,1.2,0.4c2.6,2.2,9.6,8.6,9.6,8.6
			c0.1,0.1,2.5,1.8,5.5-0.1c1.1-0.7,1.8-1.7,1.8-2.9C102.5,51,101,49.8,101,49.8L101,49.8z"/>
		<path class="st2" d="M61.4,60.2c-1.3,0-2.6,0.7-2.8,0.6c-0.1-0.1,0.1-0.6,0.2-0.9c0.1-0.3,1.8-5.3-2.3-7c-3.1-1.3-5,0.2-5.7,0.8
			c-0.2,0.2-0.2,0.2-0.3-0.1c-0.1-0.9-0.5-3.3-3.1-4.2c-3.8-1.2-6.3,1.5-6.9,2.5c-0.3-2.2-2.1-3.9-4.4-3.9c-2.5,0-4.5,2-4.5,4.4
			c0,2.5,2,4.5,4.5,4.5c1.2,0,2.3-0.5,3.1-1.2c0,0,0,0.1,0,0.2c-0.2,1.1-0.5,5.1,3.7,6.7c1.7,0.7,3.1,0.2,4.3-0.7
			c0.4-0.2,0.4-0.1,0.4,0.2c-0.2,1,0,3.2,3.1,4.5c2.3,1,3.7,0,4.7-0.9c0.4-0.4,0.5-0.3,0.5,0.3c0.1,3,2.6,5.3,5.6,5.3
			c3.1,0,5.6-2.5,5.6-5.6C67,62.7,64.5,60.2,61.4,60.2z"/>
	</g>
	<path class="st0" d="M101.8,47.6C95.5,42.1,81,29.5,77,26.5c-2.3-1.7-3.8-2.6-5.1-3c-0.6-0.2-1.4-0.4-2.5-0.4c-1,0-2.1,0.2-3.2,0.5
		c-2.5,0.8-5.1,2.8-7.5,4.8l-0.1,0.1c-2.3,1.8-4.6,3.7-6.4,4.1c-0.8,0.2-1.6,0.3-2.4,0.3c-2,0-3.8-0.6-4.5-1.4
		c-0.1-0.1,0-0.4,0.2-0.7l0,0l5.5-6c4.3-4.3,8.4-8.4,17.9-8.6c0.2,0,0.3,0,0.5,0c5.9,0,11.7,2.6,12.4,2.9c5.5,2.7,11.2,4,16.9,4.1
		c6,0,12.1-1.5,18.5-4.4c-0.7-0.6-1.5-1.2-2.2-1.8c-5.7,2.5-11.1,3.7-16.3,3.7c-5.3,0-10.6-1.3-15.8-3.8c-0.3-0.1-6.7-3.2-13.5-3.2
		c-0.2,0-0.4,0-0.5,0c-7.9,0.2-12.4,3-15.4,5.5c-2.9,0.1-5.4,0.8-7.7,1.4c-2,0.6-3.7,1-5.4,1c-0.7,0-1.9-0.1-2.1-0.1
		c-1.9-0.1-11.7-2.5-19.4-5.4c-0.8,0.6-1.6,1.1-2.3,1.7c8.1,3.3,18,5.9,21.1,6.1c0.9,0.1,1.8,0.2,2.7,0.2c2.1,0,4.1-0.6,6.1-1.1
		c1.2-0.3,2.5-0.7,3.8-0.9c-0.4,0.4-0.7,0.7-1.1,1.1l-5.6,6.1c-0.4,0.4-1.4,1.6-0.8,3.1c0.3,0.6,0.8,1.2,1.5,1.6
		c1.3,0.9,3.7,1.5,6,1.5c0.8,0,1.6-0.1,2.4-0.2c2.4-0.5,4.8-2.5,7.5-4.6c2.1-1.7,5.1-3.8,7.3-4.4c0.6-0.2,1.4-0.3,2-0.3
		c0.2,0,0.4,0,0.5,0c1.5,0.2,3,0.7,5.5,2.6c4.6,3.5,25,21.3,25.2,21.5c0,0,1.3,1.1,1.2,3c0,1-0.6,2-1.6,2.6
		c-0.9,0.6-1.8,0.8-2.7,0.8c-1.4,0-2.3-0.6-2.4-0.7c-0.1-0.1-7.1-6.5-9.7-8.6c-0.4-0.3-0.8-0.6-1.2-0.6c-0.2,0-0.4,0.1-0.5,0.3
		c-0.4,0.5,0,1.2,0.6,1.6l8.2,8.2c0,0,1,1,1.1,2.2c0.1,1.4-0.6,2.5-1.9,3.4c-1,0.6-1.9,1-2.9,1c-1.3,0-2.1-0.6-2.3-0.7l-1.2-1.2
		c-2.1-2.1-4.4-4.3-6-5.6c-0.4-0.3-0.8-0.6-1.2-0.6c-0.2,0-0.4,0.1-0.5,0.2c-0.2,0.2-0.3,0.6,0.1,1.2c0.2,0.3,0.4,0.5,0.4,0.5l6,6.7
		c0,0.1,1.2,1.5,0.1,2.9l-0.2,0.3c-0.2,0.2-0.4,0.4-0.6,0.5c-1,0.8-2.4,0.9-2.9,0.9c-0.3,0-0.6,0-0.8-0.1c-0.6-0.1-1-0.3-1.2-0.5
		l-0.1-0.1c-0.3-0.3-3.3-3.4-5.8-5.5c-0.3-0.3-0.7-0.6-1.2-0.6c-0.2,0-0.4,0.1-0.5,0.2c-0.5,0.5,0.2,1.3,0.6,1.6l5.1,5.6
		c0,0-0.1,0.2-0.2,0.3c-0.2,0.3-0.8,0.9-2.6,1.1c-0.2,0-0.5,0-0.7,0c-1.9,0-3.9-0.9-5-1.5c0.5-1,0.7-2.1,0.7-3.2
		c0-4.2-3.4-7.6-7.6-7.6c-0.1,0-0.2,0-0.3,0c0.1-1.9-0.1-5.5-3.9-7.1c-1.1-0.5-2.1-0.7-3.2-0.7c-0.8,0-1.6,0.1-2.3,0.4
		c-0.8-1.5-2-2.6-3.7-3.2c-0.9-0.3-1.8-0.5-2.7-0.5c-1.5,0-3,0.5-4.2,1.4c-1.2-1.5-3.1-2.4-5-2.4c-1.7,0-3.3,0.7-4.5,1.9
		c-1.6-1.2-7.9-5.2-24.7-9c-0.8-0.2-2.7-0.7-3.8-1.1c-0.2,0.9-0.3,1.8-0.4,2.8c0,0,3.1,0.7,3.7,0.9c17.2,3.8,22.9,7.8,23.8,8.5
		c-0.3,0.8-0.5,1.6-0.5,2.5c0,3.5,2.9,6.4,6.4,6.4c0.4,0,0.8,0,1.2-0.1c0.5,2.6,2.2,4.6,4.9,5.6c0.8,0.3,1.5,0.4,2.3,0.4
		c0.5,0,1-0.1,1.5-0.2c0.5,1.2,1.6,2.8,4,3.7c0.9,0.3,1.7,0.5,2.5,0.5c0.7,0,1.3-0.1,2-0.3c1.2,2.8,3.9,4.7,7,4.7c2,0,4-0.8,5.4-2.3
		c1.2,0.7,3.8,1.9,6.4,1.9c0.3,0,0.7,0,1-0.1c2.6-0.3,3.8-1.3,4.4-2.1c0.1-0.1,0.2-0.3,0.3-0.4c0.6,0.2,1.3,0.3,2.1,0.3
		c1.4,0,2.8-0.5,4.2-1.5c1.4-1,2.3-2.4,2.5-3.6c0,0,0,0,0-0.1c0.5,0.1,0.9,0.1,1.4,0.1c1.5,0,2.9-0.5,4.3-1.4c2.6-1.7,3.1-4,3.1-5.5
		c0.5,0.1,0.9,0.1,1.4,0.1c1.4,0,2.7-0.4,4-1.2c1.6-1,2.6-2.7,2.8-4.5c0.1-1.3-0.2-2.6-0.9-3.7c4.4-1.9,14.6-5.6,26.5-8.3
		c-0.1-0.9-0.2-1.8-0.4-2.8C115.3,41.8,104.5,46.4,101.8,47.6L101.8,47.6z M61.4,71c-2.8,0-5.1-2.2-5.2-5c0-0.2,0-0.9-0.6-0.9
		c-0.2,0-0.4,0.1-0.6,0.3c-0.6,0.6-1.4,1.2-2.5,1.2c-0.5,0-1.1-0.1-1.7-0.4c-3-1.2-3-3.2-2.9-4.1c0-0.2,0-0.4-0.1-0.6l-0.2-0.2h-0.2
		c-0.2,0-0.3,0.1-0.5,0.2c-0.9,0.6-1.7,0.9-2.5,0.9c-0.5,0-0.9-0.1-1.4-0.3c-3.9-1.5-3.6-5.2-3.4-6.3c0-0.2,0-0.4-0.2-0.5l-0.3-0.2
		l-0.3,0.2c-0.8,0.7-1.8,1.1-2.8,1.1c-2.2,0-4.1-1.8-4-4.1c0-2.2,1.8-4,4.1-4c2,0,3.7,1.5,4,3.5l0.1,1.1l0.6-0.9
		c0.1-0.1,1.7-2.6,4.7-2.6c0.6,0,1.2,0.1,1.8,0.3c2.4,0.7,2.8,2.9,2.9,3.8c0,0.5,0.4,0.6,0.5,0.6c0.2,0,0.4-0.1,0.5-0.2
		c0.5-0.5,1.4-1.3,3-1.3c0.7,0,1.5,0.2,2.2,0.5c3.8,1.6,2.1,6.5,2.1,6.5c-0.3,0.8-0.3,1.2,0,1.4l0.1,0.1h0.1c0.2,0,0.4-0.1,0.7-0.2
		c0.5-0.2,1.3-0.4,2-0.4h0c2.9,0,5.2,2.4,5.2,5.2C66.7,68.6,64.3,71,61.4,71L61.4,71z"/>
</g>
<g>
	<path class="st0" d="M354.4,14.1c-2.4-3-6-4.5-10.9-4.5c-4.9,0-8.5,1.5-10.9,4.5c-2.4,3-3.6,6.5-3.6,10.6c0,4.2,1.2,7.7,3.6,10.7
		c2.4,3,6,4.4,10.9,4.4c4.9,0,8.5-1.5,10.9-4.4c2.4-3,3.6-6.5,3.6-10.7C358,20.6,356.8,17.1,354.4,14.1z M348.5,31.3
		c-1.2,1.5-2.8,2.3-5,2.3c-2.2,0-3.8-0.8-5-2.3c-1.2-1.5-1.8-3.7-1.8-6.6c0-2.8,0.6-5,1.8-6.6c1.2-1.5,2.8-2.3,5-2.3
		c2.2,0,3.8,0.8,5,2.3c1.2,1.5,1.7,3.7,1.7,6.6C350.2,27.6,349.6,29.8,348.5,31.3z"/>
	<path class="st0" d="M293.2,11.6c-2.4-1.2-5.2-1.9-8.3-1.9c-4.8,0-8.2,1.3-10.2,3.8c-1.2,1.6-1.9,3.6-2.1,6.1h7.2
		c0.2-1.1,0.5-2,1.1-2.6c0.7-0.9,2-1.3,3.8-1.3c1.6,0,2.8,0.2,3.6,0.7c0.8,0.4,1.2,1.2,1.2,2.4c0,1-0.5,1.7-1.6,2.1
		c-0.6,0.3-1.6,0.5-3,0.7l-2.5,0.3c-2.9,0.4-5.1,1-6.6,1.8c-2.7,1.6-4.1,4.1-4.1,7.6c0,2.7,0.8,4.8,2.5,6.3c1.7,1.5,3.8,2.1,6.4,2.2
		c16.2,0.7,16.1-8.6,16.2-10.5V18.6C296.9,15.2,295.6,12.8,293.2,11.6L293.2,11.6z M289.4,27.8c0,2.5-0.8,4.2-2.1,5.1
		c-1.4,0.9-2.9,1.4-4.5,1.4c-1,0-1.9-0.3-2.6-0.8c-0.7-0.6-1.1-1.5-1.1-2.8c0-1.4,0.6-2.5,1.8-3.2c0.7-0.4,1.8-0.7,3.4-1l1.7-0.3
		c0.8-0.2,1.5-0.3,2-0.5c0.5-0.2,1-0.4,1.4-0.7L289.4,27.8L289.4,27.8z"/>
	<path class="st0" d="M256.2,16.1c1.9,0,3.2,0.6,4.1,1.7c0.6,0.8,1,1.8,1.1,2.9h8c-0.4-4-1.9-6.9-4.2-8.5c-2.4-1.6-5.5-2.4-9.2-2.4
		c-4.4,0-7.9,1.4-10.4,4.1c-2.5,2.7-3.8,6.5-3.8,11.4c0,4.3,1.1,7.8,3.4,10.5c2.3,2.7,5.8,4.1,10.6,4.1c4.8,0,8.5-1.6,10.9-4.9
		c1.5-2,2.4-4.1,2.6-6.4h-8c-0.2,1.5-0.6,2.7-1.4,3.6c-0.8,0.9-2.1,1.4-3.9,1.4c-2.6,0-4.3-1.2-5.3-3.5c-0.5-1.3-0.8-2.9-0.8-5
		c0-2.2,0.3-3.9,0.8-5.2C251.7,17.3,253.5,16.1,256.2,16.1L256.2,16.1z"/>
	<path class="st0" d="M239.7,9.8c-16.5,0-15.5,14.6-15.5,14.6v14.8h7.5V25.3c0-2.3,0.3-4,0.9-5.1c1-1.9,3-2.9,6-2.9
		c0.2,0,0.5,0,0.9,0c0.4,0,0.8,0,1.3,0.1V9.9c-0.3,0-0.5,0-0.6,0C239.9,9.8,239.8,9.8,239.7,9.8z"/>
	<path class="st0" d="M212.2,31.5c-0.3,0.4-0.7,0.8-1,1.1c-1.1,0.9-2.5,1.1-4.2,1.1c-1.6,0-2.8-0.2-4-1c-1.9-1.1-2.9-3.1-3-5.9h20.7
		c0-2.4,0-4.3-0.2-5.6c-0.3-2.2-1.1-4.2-2.3-5.9c-1.3-1.9-2.9-3.3-4.9-4.2c-2-0.9-4.2-1.3-6.7-1.3c-4.2,0-7.5,1.3-10.1,3.9
		c-2.6,2.6-3.9,6.4-3.9,11.3c0,5.2,1.4,9,4.3,11.4c2.9,2.3,6.2,3.5,10,3.5c4.6,0,8.1-1.4,10.7-4.1c1.4-1.5,2.2-2.9,2.6-4.3
		C220.1,31.5,212.2,31.5,212.2,31.5z M202.2,17.6c1-1.1,2.5-1.6,4.4-1.6c1.8,0,3.2,0.5,4.4,1.5c1.2,1,1.8,2.5,2,4.5h-12.8
		C200.5,20.1,201.1,18.6,202.2,17.6z"/>
	<path class="st0" d="M189.6,39.2h-6.8V22c0-1.6-0.5-5.3-5-5.3c-3,0-5.2,2.2-5.2,5.3v17.2h-6.8V22c0-1.6-0.5-5.3-5-5.3
		c-3.1,0-5.2,2.2-5.2,5.3v17.2h-6.8v-17c0-7.1,4.7-12.5,12-12.5c3.6,0,6.6,1.5,8.5,4c2-2.4,5-4,8.5-4c7.4,0,11.8,5.1,11.8,12.5
		C189.6,22.2,189.6,39.2,189.6,39.2z"/>
	<path class="st0" d="M326.8,0.9c0,0-7.5-0.8-7.5,5.2l0,8c-0.8-1.3-1.9-2.4-3.3-3.1c-1.3-0.8-2.9-1.1-4.6-1.1
		c-3.7,0-6.7,1.4-8.9,4.2c-2.2,2.8-3.3,6.8-3.3,11.6c0,4.2,1.1,7.6,3.4,10.3c2.3,2.7,6.7,3.9,10.6,3.9c13.8,0,13.6-11.8,13.6-11.8
		L326.8,0.9z M317.8,31.4c-1.1,1.6-2.7,2.3-4.8,2.3c-2.1,0-3.7-0.8-4.7-2.4c-1-1.6-1.5-3.9-1.5-6.5c0-2.4,0.5-4.5,1.5-6.1
		c1-1.6,2.6-2.5,4.8-2.5c1.4,0,2.7,0.5,3.8,1.4c1.8,1.5,2.6,4.2,2.6,7.6C319.5,27.8,318.9,29.8,317.8,31.4z"/>
</g>
<g>
	<path class="st0" d="M156.2,84.4c0,1-0.4,1.9-1.1,2.6c-0.7,0.7-1.6,1.1-2.6,1.1h-3.7V62c0-5.1,1.7-8.2,4.5-10.4
		c1.9-1.4,4.6-2.8,9.8-2.8c3.5,0,7.6,1.4,9.8,4c2.5,3,3.5,6.4,3.5,10.8c0,4.6-1.1,8.2-3.3,11.1c-2.2,2.8-5,4.1-8.5,4.1
		c-1.8,0-3.4-0.3-4.8-1c-1.5-0.7-2.6-1.8-3.5-3.4L156.2,84.4L156.2,84.4z M168.8,64.1c0-2.8-0.5-5-1.7-6.5c-1.1-1.5-2.7-2.3-4.7-2.3
		c-2,0-3.5,0.8-4.6,2.3c-1,1.4-1.5,3.6-1.5,6.5c0,2.8,0.5,4.8,1.6,6.2c1.1,1.5,2.7,2.3,4.7,2.3c1.9,0,3.4-0.8,4.5-2.3
		C168.2,68.8,168.8,66.7,168.8,64.1"/>
	<path class="st0" d="M225.9,76.6v-1.8c-1.3,2-3,3.3-5.2,3.8c-2.2,0.5-4.4,0.3-6.5-0.5c-2.2-0.9-4-2.5-5.6-4.8
		c-1.5-2.4-2.3-5.4-2.3-9.3c0-4.5,1-8.1,3.1-10.9c2.1-2.8,5.4-4.1,9.9-4.2c4.5-0.1,7.1,0.9,9.6,2.8c2.8,2.1,4.4,5.4,4.4,10.4v15.3
		c0,4.9-3.4,13.9-14,13.1c-6.6-0.5-10.3-3.2-12.3-9.3h7.9c0.6,1,1.5,1.8,2.7,2.3c1.2,0.5,2.4,0.7,3.6,0.4c1.2-0.3,2.3-1,3.2-2.1
		C225.2,80.6,225.8,78.9,225.9,76.6 M213.6,64.1c0,5,1.4,7.7,4.3,8.3c2.9,0.5,5-0.1,6.4-2c0.6-0.8,1.1-2,1.4-3.7
		c0.3-1.7,0.3-3.4,0.1-5c-0.2-1.7-0.8-3.1-1.8-4.5c-0.9-1.3-2.3-2-4.1-2c-2.4,0-4.1,0.9-5,2.7C214,59.7,213.6,61.8,213.6,64.1"/>
	<path class="st0" d="M199.9,50.9c-2.4-1.2-5.2-1.9-8.3-1.9c-4.8,0-8.2,1.3-10.2,3.8c-1.2,1.6-1.9,3.7-2.1,6.1h7.2
		c0.2-1.1,0.5-2,1.1-2.6c0.7-0.9,2-1.3,3.8-1.3c1.6,0,2.8,0.2,3.6,0.7c0.8,0.4,1.2,1.2,1.2,2.4c0,1-0.5,1.7-1.6,2.1
		c-0.6,0.3-1.6,0.5-3,0.7l-2.6,0.3c-2.9,0.4-5.1,1-6.6,1.8c-2.7,1.6-4.1,4.1-4.1,7.6c0,2.7,0.8,4.8,2.5,6.3c1.7,1.5,3.8,2.1,6.4,2.2
		c16.3,0.7,16.1-8.6,16.2-10.5V57.9C203.5,54.5,202.3,52.1,199.9,50.9 M196.1,67.1c0,2.5-0.8,4.2-2.1,5.1c-1.4,0.9-2.9,1.4-4.5,1.4
		c-1,0-1.9-0.3-2.6-0.8c-0.7-0.6-1.1-1.5-1.1-2.8c0-1.4,0.6-2.5,1.8-3.2c0.7-0.4,1.8-0.7,3.4-1l1.7-0.3c0.8-0.2,1.5-0.3,2-0.5
		c0.5-0.2,1-0.4,1.4-0.7C196.1,64.4,196.1,67.1,196.1,67.1z"/>
	<path class="st0" d="M261.6,53.2c-2.4-3-6-4.5-10.9-4.5c-4.9,0-8.5,1.5-10.9,4.5c-2.4,3-3.6,6.6-3.6,10.6c0,4.2,1.2,7.7,3.6,10.7
		c2.4,3,6,4.4,10.9,4.4c4.9,0,8.5-1.5,10.9-4.4c2.4-3,3.6-6.5,3.6-10.7C265.2,59.8,264,56.3,261.6,53.2 M255.6,70.5
		c-1.2,1.5-2.8,2.3-5,2.3c-2.2,0-3.8-0.8-5-2.3c-1.2-1.5-1.8-3.7-1.8-6.6c0-2.8,0.6-5,1.8-6.6c1.2-1.5,2.8-2.3,5-2.3
		c2.2,0,3.8,0.8,5,2.3c1.2,1.5,1.7,3.7,1.7,6.6C257.4,66.7,256.8,68.9,255.6,70.5"/>
</g>
</svg>
