<svg xmlns="http://www.w3.org/2000/svg" viewBox="0 0 24 24"><g transform="translate(2 2.5)"><path d="M.764,0A.765.765,0,1,1,0,.765.766.766,0,0,1,.764,0Z" transform="translate(4.658 17.32)" fill="none" stroke="#000" stroke-linecap="round" stroke-linejoin="round" stroke-miterlimit="10" stroke-width="1.5"/><path d="M.765,0A.765.765,0,1,1,0,.765.766.766,0,0,1,.765,0Z" transform="translate(15.91 17.32)" fill="none" stroke="#000" stroke-linecap="round" stroke-linejoin="round" stroke-miterlimit="10" stroke-width="1.5"/><path d="M0,0,2.08.36l.963,11.473a1.8,1.8,0,0,0,1.8,1.653H15.752a1.8,1.8,0,0,0,1.785-1.546l.949-6.558a1.341,1.341,0,0,0-1.327-1.533H2.414" transform="translate(0.75 0.75)" fill="none" stroke="#000" stroke-linecap="round" stroke-linejoin="round" stroke-miterlimit="10" stroke-width="1.5"/><path d="M0,.5H2.773" transform="translate(12.125 7.795)" fill="none" stroke="#000" stroke-linecap="round" stroke-linejoin="round" stroke-miterlimit="10" stroke-width="1.5"/></g></svg>