<?xml version="1.0" ?><svg id="icons" viewBox="0 0 512 512" xmlns="http://www.w3.org/2000/svg"><path d="M35.42,188.21,243.17,457.67a16.17,16.17,0,0,0,25.66,0L476.58,188.21a16.52,16.52,0,0,0,.95-18.75L407.06,55.71A16.22,16.22,0,0,0,393.27,48H118.73a16.22,16.22,0,0,0-13.79,7.71L34.47,169.46A16.52,16.52,0,0,0,35.42,188.21Z" fill="none" stroke="#000" stroke-linecap="round" stroke-linejoin="round" stroke-width="32"/><line fill="none" stroke="#000" stroke-linecap="round" stroke-linejoin="round" stroke-width="32" x1="48" x2="464" y1="176" y2="176"/><polyline fill="none" points="400 64 352 176 256 48" stroke="#000" stroke-linecap="round" stroke-linejoin="round" stroke-width="32"/><polyline fill="none" points="112 64 160 176 256 48" stroke="#000" stroke-linecap="round" stroke-linejoin="round" stroke-width="32"/><line fill="none" stroke="#000" stroke-linecap="round" stroke-linejoin="round" stroke-width="32" x1="256" x2="160" y1="448" y2="176"/><line fill="none" stroke="#000" stroke-linecap="round" stroke-linejoin="round" stroke-width="32" x1="256" x2="352" y1="448" y2="176"/></svg>