<?xml version="1.0" encoding="UTF-8"?><svg xmlns="http://www.w3.org/2000/svg" viewBox="0 0 554.496 523.0989"><g id="a"/><g id="b"><g id="c"><g><path d="M228.4936,140.4794l-31.2848,3.7939,4.8648,40.1154-31.7898,3.8551-4.8648-40.1154-96.8825,11.7488-2.7536-22.7067L139.027,12.8282l35.0694-4.2528L105.2864,127.2596l57.7766-7.0065-4.3141-35.5744,30.7803-3.7327,4.3141,35.5744,31.2848-3.7939,3.3655,27.7528Z"/><path d="M264.7986,186.9164c-10.3577-8.3423-18.0084-19.7193-22.9473-34.1343-4.9437-14.4116-6.4074-31.0526-4.3989-49.9234,2.0081-18.8673,6.9415-34.827,14.8083-47.8791,7.8619-13.0486,17.7358-22.5604,29.6178-28.5397,11.8816-5.9759,24.899-8.2124,39.0512-6.7061,14.1522,1.5062,26.4463,6.4367,36.8909,14.7888,10.4403,8.3551,18.1305,19.7363,23.0743,34.1479,4.9389,14.415,6.4065,31.056,4.3984,49.9233-2.0085,18.8708-6.9459,34.8305-14.8078,47.8791-7.8667,13.0521-17.7802,22.5597-29.7448,28.5262-11.969,5.9706-25.0249,8.199-39.1772,6.6927-14.1522-1.5062-26.4076-6.4286-36.7649-14.7754Zm71.4189-26.2634c8.4409-9.6643,13.7641-24.8601,15.9697-45.5828,2.2056-20.7232,.1996-36.6946-6.0176-47.9234-6.2172-11.2244-15.6437-17.5107-28.2793-18.8556-12.4702-1.3272-22.9217,2.8435-31.3621,12.5078-8.4409,9.6688-13.7636,24.8601-15.9692,45.5833s-.2,36.6985,6.0172,47.9229c6.2168,11.2283,15.5567,17.502,28.0269,18.8292,12.6357,1.3448,23.1738-2.8132,31.6146-12.4814Z"/><path d="M549.4606,148.4739l-30.9986-5.6761-7.2783,39.7484-31.499-5.7678,7.2783-39.7484-95.9962-17.5778,4.1198-22.499L501.978,0l34.7485,6.3628-100.976,92.8688,57.248,10.4827,6.4544-35.2489,30.4987,5.5846-6.4544,35.2489,30.9986,5.6761-5.0353,27.4989Z"/><circle cx="194.6357" cy="498.4906" r="24.6082" transform="translate(-295.4786 283.6327) rotate(-45)" fill="#424242"/><path d="M205.8169,498.4907c0,6.1753-5.0057,11.1812-11.1812,11.1812s-11.1815-5.006-11.1815-11.1812,5.0059-11.1815,11.1815-11.1815,11.1812,5.006,11.1812,11.1815Z" fill="#ececec"/><path d="M405.6404,498.4907c0,13.5907-11.0177,24.6082-24.6089,24.6082s-24.6082-11.0175-24.6082-24.6082,11.018-24.6085,24.6082-24.6085,24.6089,11.0177,24.6089,24.6085Z" fill="#424242"/><path d="M392.2132,498.4907c0,6.1753-5.0062,11.1812-11.1817,11.1812s-11.1813-5.006-11.1813-11.1812,5.0062-11.1815,11.1813-11.1815,11.1817,5.006,11.1817,11.1815Z" fill="#ececec"/><path d="M547.158,173.8293H80.0355c-3.7495,0-6.7914-2.9504-6.7914-6.5873s3.0419-6.588,6.7914-6.588h467.1225c3.7495,0,6.7917,2.9512,6.7917,6.588s-3.0421,6.5873-6.7917,6.5873Z" fill="#eaeaea"/><path d="M465.8192,363.6568H113.9062c-1.0727,0-1.9411-.9823-1.9411-2.1966,0-1.2133,.8684-2.1956,1.9411-2.1956H465.8192c1.0727,0,1.9409,.9823,1.9409,2.1956,0,1.2143-.8682,2.1966-1.9409,2.1966Z" fill="#eaeaea"/><path d="M478.9071,330.6771l-372.4415-1.0174c-1.0578,0-1.914-.9823-1.914-2.1956,0-1.214,.8561-2.1966,1.914-2.1966l372.4415,1.0174c1.0574,0,1.9136,.9826,1.9136,2.1966,0,1.2133-.8562,2.1956-1.9136,2.1956Z" fill="#eaeaea"/><path d="M493.337,287.9068H94.1822c-1.1002,0-1.9901-.9818-1.9901-2.1956s.8899-2.1958,1.9901-2.1958H493.337c1.0997,0,1.9901,.9821,1.9901,2.1958s-.8904,2.1956-1.9901,2.1956Z" fill="#eaeaea"/><path d="M512.7963,244.5733H89.3215c-1.0959,0-1.9827-.7421-1.9827-1.6598,0-.917,.8868-1.6596,1.9827-1.6596h423.4747c1.0957,0,1.982,.7426,1.982,1.6596,0,.9177-.8863,1.6598-1.982,1.6598Z" fill="#eaeaea"/><path d="M527.5504,203.3845H82.1813c-1.1224,0-2.0297-.9826-2.0297-2.1956,0-1.214,.9073-2.1961,2.0297-2.1961h445.3691c1.1221,0,2.0299,.9821,2.0299,2.1961,0,1.213-.9078,2.1956-2.0299,2.1956Z" fill="#eaeaea"/><path d="M161.4202,364.0351c-1.1362,0-2.0973-.8751-2.1869-2.0291l-17.834-190.5271c-.0902-1.2093,.8149-2.2645,2.0242-2.3586,1.0937-.1203,2.2606,.8104,2.3594,2.0242l17.8337,190.5271c.0897,1.2093-.8154,2.2645-2.0247,2.3591-.0556,.0044-.1112,.0044-.1717,.0044Z" fill="#eaeaea"/><path d="M416.1072,361.5481c-.1892,0-.3821-.0254-.575-.0768-1.1708-.3174-1.8614-1.5225-1.544-2.6933l58.705-188.0413c.3176-1.1661,1.5141-1.8567,2.6935-1.5435,1.1708,.3171,1.8614,1.5223,1.5435,2.6928l-58.7045,188.0408c-.2658,.9781-1.1498,1.6213-2.1185,1.6213Z" fill="#eaeaea"/><path d="M468.5932,362.5655c-.1892,0-.3821-.0254-.575-.0768-1.1708-.3174-1.8614-1.5225-1.544-2.6933l70.9138-188.0413c.3176-1.1661,1.5141-1.8567,2.6935-1.5435,1.1708,.3171,1.8614,1.5223,1.5435,2.6928l-70.9133,188.0408c-.2658,.9781-1.1498,1.6213-2.1185,1.6213Z" fill="#eaeaea"/><path d="M214.4117,360.0737c-1.1883,0-2.1655-.9477-2.1956-2.1403l-6.6273-186.5662c-.0301-1.2135,.9305-2.2215,2.14-2.2514h.0556c1.1881,0,2.166,.9475,2.1961,2.1403l6.627,186.5662c.0304,1.2133-.9305,2.2215-2.14,2.2514h-.0558Z" fill="#eaeaea"/><path d="M370.1795,361.5426c-.1198,0-.2398-.0086-.3604-.0299-1.1962-.1932-2.0066-1.3252-1.8095-2.5219l33.3872-188.0354c.1973-1.1967,1.338-2.0244,2.5219-1.8098,1.1969,.1927,2.0073,1.3249,1.8097,2.5216l-33.3869,188.0354c-.1766,1.0764-1.1071,1.8399-2.162,1.8399Z" fill="#eaeaea"/><path d="M266.9436,360.3828c-.0558,.0028-.1113,.0055-.1675,.0041-1.2125-.0346-2.1729-1.039-2.1433-2.251l5.7172-187.1364c.0341-1.2123,1.0509-2.178,2.2508-2.1428,1.2123,.0338,2.1729,1.038,2.1432,2.25l-5.7174,187.1365c-.0324,1.1573-.9483,2.0831-2.0831,2.1396Z" fill="#eaeaea"/><path d="M316.0299,361.3759c-.0815,0-.163-.0044-.249-.0124-1.2051-.1331-2.0716-1.2229-1.9387-2.4275l24.5069-187.8692c.1329-1.2007,1.1836-2.0884,2.4273-1.9382,1.2049,.1329,2.0716,1.2222,1.939,2.427l-24.5072,187.8689c-.124,1.1197-1.0759,1.9513-2.1783,1.9513Z" fill="#eaeaea"/><path d="M447.9706,474.7588H134.0299L43.2667,74.692l-31.5509-13.8672c-3.2025-1.4078-4.6577-5.1447-3.2503-8.3472,1.4082-3.2025,5.146-4.6553,8.3472-3.2503l37.8874,16.6524,90.1537,396.2111H447.9706c3.4986,0,6.334,2.8355,6.334,6.334s-2.8355,6.334-6.334,6.334Z" fill="#eaeaea"/><path d="M42.0546,75.0704c-.8731,0-1.7621-.1556-2.6269-.4849L4.7837,61.4419c-3.8268-1.4509-5.7517-5.7299-4.2995-9.5555,1.4509-3.8268,5.7287-5.7578,9.5557-4.2995l34.6439,13.1434c3.827,1.4509,5.7517,5.7302,4.2998,9.5557-1.1229,2.962-3.9392,4.7844-6.9289,4.7844Z" fill="#424242"/></g></g></g></svg>