<svg xmlns="http://www.w3.org/2000/svg" xmlns:xlink="http://www.w3.org/1999/xlink" viewBox="0 0 866.6645 278.4517"><defs><linearGradient id="ae6a9f4b-99ae-420f-b016-f78e79cd6161" x1="-114.0105" y1="459.4542" x2="1003.0583" y2="-185.4858" gradientUnits="userSpaceOnUse"><stop offset="0" stop-color="#e8b04f"/><stop offset="0.2266" stop-color="#e8c04f"/><stop offset="0.4877" stop-color="#f2db77"/><stop offset="0.7389" stop-color="#eac663"/><stop offset="0.9803" stop-color="#e8b04f"/></linearGradient><linearGradient id="eadfe869-eb1e-46bf-8830-e2ae36ec333c" x1="-150.9632" y1="602.9162" x2="966.085" y2="-42.0119" xlink:href="#ae6a9f4b-99ae-420f-b016-f78e79cd6161"/><linearGradient id="b493d01d-a6d2-4e15-83cf-1fcd5da70a46" x1="35.8543" y1="382.2274" x2="802.9127" y2="-60.634" xlink:href="#ae6a9f4b-99ae-420f-b016-f78e79cd6161"/></defs><g id="a7b78d24-951a-4413-835d-1295ec632e40" data-name="Layer 2"><g id="bf586ae1-0347-4fcc-adb4-64bb09638e1e" data-name="Capa 1"><path d="M468.9516,128.813c1.4746,0,2.6524-1.1006,3.6153-2.1826a23.4794,23.4794,0,0,0,2.73-3.91c2.5108-4.269,2.7676-6.0166,2.3838-7.3251a2.9474,2.9474,0,0,0-1.5058-1.8287,2.3692,2.3692,0,0,0-1.0665-.2548c-1.17,0-1.999.7045-3.3037,2.1777a44.7437,44.7437,0,0,0-2.93,3.7383c-.0488.0688-.0937.1421-.1367.2153-2.2519,4.0093-3.2811,6.8584-1.456,8.6787A2.3519,2.3519,0,0,0,468.9516,128.813Z" fill="url(#ae6a9f4b-99ae-420f-b016-f78e79cd6161)"/><path d="M680.4809,128.813c1.4767,0,2.6543-1.1006,3.6172-2.1826a23.6653,23.6653,0,0,0,2.7315-3.91c2.5107-4.269,2.7685-6.0166,2.3828-7.3251a2.9489,2.9489,0,0,0-1.5068-1.8287,2.3647,2.3647,0,0,0-1.0655-.2548c-1.1719,0-1.999.7045-3.3027,2.1777a44.5346,44.5346,0,0,0-2.93,3.7383,2.227,2.227,0,0,0-.1377.2153c-2.253,4.0093-3.2813,6.8584-1.4561,8.6787A2.3544,2.3544,0,0,0,680.4809,128.813Z" fill="url(#eadfe869-eb1e-46bf-8830-e2ae36ec333c)"/><path d="M865.88,155.4429a2.3638,2.3638,0,0,0-3.375-1.1709c-6.7021,3.8594-12.9873,7.3145-18.6875,10.2666a165.9411,165.9411,0,0,1-15.48,7.1338,1.1225,1.1225,0,0,0-.16.0684,66.3419,66.3419,0,0,1-12.1758,4.6113,36.768,36.768,0,0,1-8.3574,1.3145c-1.1864,0-2.627-.1631-2.7461-.9346a13.0534,13.0534,0,0,1,.831-5.9639,40.3881,40.3881,0,0,1,3.6417-7.8564q2.4405-4.1265,3.97-6.5713c1.0156-1.62,1.2588-3.0752.7295-4.3262a3.7508,3.7508,0,0,0-2.8526-2.16,5.0072,5.0072,0,0,0-4.1875.7851c-1.6455-2.45-4.3926-3.7637-8.0058-3.7637-5.5977,0-11.3829,2.042-17.2061,6.0674-.5195.36-1.02.73-1.5244,1.0938a2.3441,2.3441,0,0,0-.61.2324c-1.374.7851-5.0556,2.624-10.9394,5.4658-5.8965,2.8486-12.5986,5.89-19.9219,9.04-7.248,3.125-14.6924,5.9483-22.125,8.3946-7.2451,2.3828-12.99,3.6914-17.0683,3.8847-.2461.01-.4844.0157-.7148.0157-2.3976,0-2.9308-.5645-2.9845-.63a1.5158,1.5158,0,0,1-.04-1.0391c.5293-2.7285,2.4072-5.8642,5.5791-9.3193A61.0834,61.0834,0,0,1,723.77,160.0093c4.623-2.9238,8.8106-4.4062,12.44-4.4062,2.5068,0,2.7862,1.0293,2.9922,1.7676.877,2.6347,3.4883,3.5361,6.2041,1.66,3.0781-2.1328,2.666-4.5644,2.2783-5.623-.95-3.1416-3.45-6.8409-9.9364-6.8409a24.449,24.449,0,0,0-11.085,3.0323,66.4625,66.4625,0,0,0-9.1163,5.7187c-5.8623,3.4424-11.45,6.5528-16.5967,9.2207a166.8,166.8,0,0,1-15.5605,7.167c-9.0918,3.9551-16.13,5.961-20.92,5.961a3.4026,3.4026,0,0,1-2.3282-.5772,2.5425,2.5425,0,0,1-.2539-1.8516,39.7168,39.7168,0,0,1,3.501-11.166,105.4585,105.4585,0,0,1,6.9258-12.7988c2.6719-4.2109,4.5195-7.1406,5.6007-8.8711a4.3962,4.3962,0,0,0,.4921-3.7764,4.608,4.608,0,0,0-2.9473-2.6845c-2.8144-1.0581-5.208-.1656-6.2793,1.9868q-1.5468,2.78-5.3994,9.8735-1.9174,3.5216-3.55,7.169c-3.876,2.2236-9.2861,5.2324-16.1377,8.9746-7.6143,4.166-15.9541,8.3349-24.793,12.3965-8.8349,4.0605-17.7744,7.6562-26.5732,10.69-8.6406,2.9805-16.1,4.4912-22.27,4.4912-4.0919.1758-7.2618-.5811-9.3527-2.2539-1.93-1.54-2.7-4.1953-2.3563-8.1084.5936-6.7334,2.7684-14.85,6.4608-24.1221,3.7442-9.4121,7.9649-18.94,12.5528-28.3169,4.6015-9.4023,9.1328-17.9507,13.4668-25.4087,4.3126-7.4174,7.4414-12.7544,9.31-15.8715.4443-.5821,1.8388-2.3448,6.1845-7.6875,3.5908-4.4087,7.8467-9.7559,12.6543-15.8926,4.876-6.23,9.9668-12.9307,15.127-19.9126,5.2392-7.09,9.8759-13.7056,13.7773-19.6631a157.8073,157.8073,0,0,0,8.9121-15.0166C659,5.6563,659.3286,3.399,658.29,1.72A3.7324,3.7324,0,0,0,654.9262,0C652.12,0,648.83,2.15,644.5708,6.7637A169.8382,169.8382,0,0,0,632.0727,22.38c-4.5311,6.2842-9.2676,13.26-14.0791,20.7354-4.786,7.4341-9.4033,14.6943-13.72,21.5757-4.49,7.1718-8.1738,13.1235-11.2539,18.1953-3.085,5.0727-5.1953,8.6172-6.2686,10.5424-1.4521,1.8682-3.8935,5.1114-7.4638,9.9034-3.5772,4.8032-7.914,10.43-12.89,16.7256-5.0518,6.3886-10.5771,13.1-16.418,19.9472q-1.3814,1.6186-2.7723,3.2022a8.4055,8.4055,0,0,0-.29-.9268c-.9608-2.68-3.3017-5.8745-8.9951-5.8745a26.3046,26.3046,0,0,0-12.36,3.5151,67.47,67.47,0,0,0-11.97,8.2959,85.1015,85.1015,0,0,0-6.9082,6.7061c-6.1113,3.6074-11.9209,6.8486-17.2636,9.6152a166.5735,166.5735,0,0,1-15.5616,7.167c-9.0918,3.9551-16.1289,5.961-20.9189,5.961a3.4087,3.4087,0,0,1-2.33-.5772,2.5465,2.5465,0,0,1-.2529-1.8516,39.82,39.82,0,0,1,3.5029-11.166,105.0219,105.0219,0,0,1,6.9248-12.7988c2.669-4.2109,4.5186-7.1406,5.5977-8.8711a4.3957,4.3957,0,0,0,.4951-3.7764,4.6156,4.6156,0,0,0-2.9463-2.6845c-2.8144-1.0552-5.209-.1626-6.2812,1.9868q-1.5455,2.7767-5.3995,9.8735c-1.2714,2.3379-2.45,4.7246-3.5351,7.1406-3.0039,1.6739-6.1846,3.3965-9.4961,5.1368-3.8574,2.0322-7.749,3.9267-11.5674,5.6308a73.6119,73.6119,0,0,1-11.3369,4.0293,40.3373,40.3373,0,0,1-10.1738,1.4619c-4.0537,0-6.8575-.75-8.3384-2.2383a25.208,25.208,0,0,1-4.3691-5.7685q-1.8626-3.4088-3.5708-6.3691c-1.085-1.87-3.31-4.0977-7.74-4.0977-2.79,0-5.96,1.3027-9.6914,3.9844-3.32,2.3857-6.834,5.1113-10.4434,8.1045a119.8057,119.8057,0,0,1-10.5678,7.8506c-3.1831,2.09-6.0083,3.1523-8.4018,3.1523-2.208,0-2.41-.7275-2.4967-1.044a13.3549,13.3549,0,0,1,.0469-5.8652c.4918-2.6738,1.1543-5.68,1.97-8.9394a72.3118,72.3118,0,0,0,1.75-9.3955,13.1383,13.1383,0,0,0-1.3936-8.2354c-1.481-2.5068-4.2359-3.7773-8.19-3.7773a19.2081,19.2081,0,0,0-9.6621,2.9423,56.2425,56.2425,0,0,0-9.813,7.5479c-3.3032,3.0976-6.9111,6.7031-10.72,10.7207q-5.7,6.0059-11.8554,12.4707-5.84,6.1538-11.524,11.9873c-3.77,3.8652-7.4062,7.3486-10.8017,10.3438a96.2433,96.2433,0,0,1-9.31,7.3632c-3.067,2.0791-4.99,2.5157-6.0636,2.5157-.2392,0-.3569-.0381-.3613-.0274a1.8662,1.8662,0,0,1-.2031-.9531,23.6922,23.6922,0,0,1,1.2856-7.5147,103.4661,103.4661,0,0,1,4.3644-11.4336c1.9345-4.3691,4.039-8.7851,6.2557-13.121,2.2334-4.3682,4.5-8.6436,6.74-12.7159,2.2744-4.1386,4.1548-7.6865,5.585-10.55,1.0956-2.1914,1.3-3.957.627-5.4013a4.1424,4.1424,0,0,0-2.9713-2.2657c-2.7944-.6455-5.4746.9825-7.7017,4.8809-1.4628,2.7363-3.1416,6.043-5.0839,9.9932C252.85,160.03,240.3979,166.274,226.415,173.9537c-14.4316,7.9277-29.9331,16.6357-46.0708,25.8867-8.2,4.7-14.0361,7.5361-20.2124,10.542-5.8125,2.8252-11.8208,5.7461-20.0737,10.3759-16.7378,9.3877-32.9141,17.9659-48.084,25.5049a450.8888,450.8888,0,0,1-42.1128,18.5313c-12.6152,4.7031-23.1109,7.0869-31.1973,7.0869-6.9512,0-10.6152-1.5049-10.8882-4.4805-.3569-3.8,1.9283-9.11,6.7925-15.7851,5.1343-7.05,12.4575-15.292,21.7676-24.4971,9.3057-9.2129,19.7812-18.8633,31.1382-28.6836,11.3765-9.84,23.2661-19.7119,35.3359-29.3477,12.3184-9.831,14.41-11.4589,24.8609-19.35,10.5087-7.9306,19.61-14.6543,27.05-19.98,7.5434-5.4019,12.48-8.8472,14.6362-10.2207,3-1.8321,4.6855-3.6949,5.1548-5.6978a5.0121,5.0121,0,0,0-.6944-3.89,5.92,5.92,0,0,0-5.3627-2.688,16.84,16.84,0,0,0-5.9185,1.3315l-6.1275,2.7608c-18.2578,7.91-32.3486,12.937-41.8847,14.9428a59.1129,59.1129,0,0,1-11.6773,1.4893c-3.4326,0-5.1328-.6314-5.9575-1.165s-3.022-1.9434-.0713-8.0762c2.4434-5.0845,6.8091-10.9409,12.9738-17.4053a216.415,216.415,0,0,1,23.2977-20.7051,273.8145,273.8145,0,0,1,29.1543-19.8432A197.2754,197.2754,0,0,1,192.8193,45.834c10.0581-3.7822,19.2563-5.6987,27.3418-5.6987,4.5035,0,7.96.6289,10.272,1.8711a8.5647,8.5647,0,0,1,4.28,4.852,21.1179,21.1179,0,0,1,.8013,8.5777,115.1178,115.1178,0,0,1-1.6411,11.6631c-.81,2.937.1476,4.4936,1.0933,5.2773a5.35,5.35,0,0,0,4.08,1.1519,7.8169,7.8169,0,0,0,3.9673-1.7139,6.64,6.64,0,0,0,2.5474-3.9595,68.8865,68.8865,0,0,0,1.75-13.3965,26.275,26.275,0,0,0-2.2223-11.8359,18.3265,18.3265,0,0,0-7.7505-8.292c-3.4282-1.939-8.0692-2.9219-13.7875-2.9219-9.2725,0-19.5523,2.1231-30.5557,6.312A207.717,207.717,0,0,0,160.289,53.76a295.4135,295.4135,0,0,0-31.0376,21.417,220.9132,220.9132,0,0,0-24.9008,22.57c-6.812,7.3359-11.6622,14.0137-14.415,19.8433-4.0289,8.5234-1.1886,12.769,1.9027,14.8286,2.191,1.4609,5.2847,2.1728,9.4585,2.1728a67.3765,67.3765,0,0,0,12.7915-1.5151c7.6827-1.5337,17.876-4.8511,30.4513-9.9111q-1.268.9741-2.6383,2.0258c-7.4647,5.7271-16.19,12.585-26.6737,20.97-6.294,5.0351-9.4127,7.6631-13.73,11.3007-2.6948,2.27-5.8174,4.9024-10.44,8.7305-11.9239,9.8662-23.5025,19.8877-34.412,29.7842-10.9713,9.94-21.1124,19.7715-30.1422,29.2129-9.1045,9.51-16.0435,18.084-20.626,25.4834C.9751,258.58-.8334,264.9009.3506,270.0054c1.3032,5.6035,7.2558,8.4463,17.6977,8.4463,8.8564,0,20.0123-2.4844,33.1553-7.3857,12.9336-4.8243,27.3032-11.1221,42.712-18.7237,15.3407-7.57,31.642-16.1865,48.454-25.6142,9.22-5.1739,29.6055-16.1416,49.3237-26.749,15.8-8.503,30.7256-16.5323,37.3169-20.1944,11.085-6.17,21.1856-11.3906,30.16-15.6055-.9737,1.9971-1.9546,4.002-2.9492,6.0372-2.2759,4.6582-4.3267,9.3857-6.0928,14.0585a81.3565,81.3565,0,0,0-3.8042,12.8545c-.8,4.126-.7769,7.4239.07,10.0987.6,1.8769,2.391,5.0293,7.6376,5.0293,2.7559,0,5.8027-1.1367,9.3169-3.4766a88.9714,88.9714,0,0,0,10.4473-8.3818c3.6855-3.38,7.6025-7.1924,11.6416-11.3321,4.0254-4.1328,8.0332-8.3984,11.8746-12.6435,8.0731-8.4834,15.415-16.0313,21.8192-22.4365,5.9028-5.9024,10.97-8.9844,14.957-9.1631a1.291,1.291,0,0,1,.5738.084,1.2277,1.2277,0,0,1,.1572.583,19.7446,19.7446,0,0,1-.5718,6.1582c-.602,2.7021-1.3012,5.6533-2.1406,9.0234a40.0527,40.0527,0,0,0-1.3042,9.6563,14.6008,14.6008,0,0,0,2.2446,8.2392c1.69,2.53,4.8282,3.8184,9.4771,3.8184h.0239a25.3311,25.3311,0,0,0,11.3862-3.875,120.37,120.37,0,0,0,10.6792-7.2237c3.3589-2.5439,6.542-4.8544,9.4595-6.8652,2.5635-1.7676,4.7539-2.6611,6.5122-2.6611,1.7764,0,2.3833.6728,2.7129,1.2568.9282,1.6553,2.0371,3.5049,3.294,5.49a21.5263,21.5263,0,0,0,6.0346,6.0684c2.7852,1.9424,7.1045,2.8867,13.2066,2.8867,7.2763,0,15.3164-1.9336,23.8994-5.7461,5.3892-2.3935,10.5054-4.9033,15.36-7.4824a34.6032,34.6032,0,0,0-1.9,12.2315c.2773,4.9394,3.6054,7.7724,9.1328,7.7724,5.498,0,13.2431-2.0722,23.7246-6.3555,4.7275-2.0527,10.0615-4.6123,15.85-7.6113,1.6817-.87,3.4277-1.7959,5.2051-2.751-.4737.7969-.917,1.5831-1.3124,2.3438-1.8683,3.625-2.6564,6.67-2.4064,9.3115.1564,1.6123,1.1436,5.3711,6.9707,5.3711,4.709,0,9.8184-1.5566,15.18-4.6221a92.2469,92.2469,0,0,0,15.8076-11.69c5.2481-4.7324,10.6319-10.0674,16.0039-15.8506,5.3585-5.7685,10.4219-11.6133,15.0459-17.37q3.2916-4.0935,6.4209-8.09-2.5239,5.1614-5.0253,10.7182c-3.3028,7.3242-6.2833,14.8526-8.8565,22.375a72.809,72.809,0,0,0-4.2793,20.7656c-.4756,6.59,1.3038,11.3848,5.2891,14.2491a20.1424,20.1424,0,0,0,12.0117,3.458c.8017,0,1.628-.0313,2.374-.0918,6.5508-.2129,14.3887-1.8047,23.295-4.7354a237.1052,237.1052,0,0,0,26.4384-10.5742c8.709-4.0977,17.1446-8.3662,25.0684-12.6865,4.3623-2.3809,8.1894-4.4971,11.5683-6.3936a34.9147,34.9147,0,0,0-1.9746,12.4571c.2755,4.9394,3.6045,7.7724,9.1318,7.7724,5.4991,0,13.2452-2.0722,23.7257-6.3555,4.5517-1.9775,9.68-4.4355,15.2216-7.291a26.8527,26.8527,0,0,0-2.3584,4.585c-1.2772,3.3291-1.2881,6.2139-.0352,8.5723,1.2627,2.3867,3.924,3.5966,7.9083,3.5966.3955,0,.8057-.0107,1.208-.03,4.9267-.2178,11.3037-1.6036,18.956-4.1211,7.5664-2.4883,15.1407-5.3614,22.5177-8.54,5.4247-2.334,10.5058-4.6064,15.1864-6.7939a32.8894,32.8894,0,0,0-5.6338,11.19c-.64,2.6055-.3535,4.708.8506,6.2451,1.2139,1.545,3.2,2.3282,5.9072,2.3282,3.2627,0,6.9717-1.0264,11.3418-3.1348a65.8152,65.8152,0,0,0,9.7256-5.5449c2.8614-2.0186,5.6963-4.1514,8.4278-6.3369.3476-.2774.6875-.5567,1.0294-.836a15.0674,15.0674,0,0,0-.2335,4.7393,8.9821,8.9821,0,0,0,2.5293,5.5146c4.0185,3.9942,13.6064,2.6846,30.3183-4.1426,4.7295-2.0517,10.1074-4.61,15.9863-7.6025,5.8428-2.9707,12.2481-6.459,19.0479-10.3769a2.3585,2.3585,0,0,0,1.0127-2.9229ZM630.434,38.1275C634.15,32.35,637.71,26.983,641.017,22.1744c3.0713-4.4693,5.8663-8.1929,8.3194-11.0923-1.6445,2.7607-3.7236,5.9946-6.2158,9.6572-3.4717,5.105-7.44,10.6733-11.7969,16.55q-1.28,1.7264-2.5508,3.4258Q629.5961,39.43,630.434,38.1275Zm-98.2968,120.79a134.8052,134.8052,0,0,1-17.2422,14.07c-5.2217,3.5147-9.9072,5.295-13.9248,5.295a3.1174,3.1174,0,0,1-.875-.0957,1.7555,1.7555,0,0,1,0-.1788c.0586-1.0136.5078-2.8818,2.31-6.0429a61.8137,61.8137,0,0,1,6.377-8.8877,84.1444,84.1444,0,0,1,8.833-8.9844,49.276,49.276,0,0,1,9.84-6.7588,19.8521,19.8521,0,0,1,8.9257-2.5107,2.8625,2.8625,0,0,1,2.8135,1.4648,6.8679,6.8679,0,0,0,2.499,2.9942C538.5131,152.6753,535.3188,155.898,532.1372,158.9175Zm262.5361,7.1905a105.14,105.14,0,0,1-9.5635,7.6289c-1.041.623-2.2762,1.3105-3.6719,2.0517-1.5322.8194-3.15,1.6309-4.8222,2.4112a45.9709,45.9709,0,0,1-5.1279,2.0507,13.0044,13.0044,0,0,1-3.8711.8037,2.8686,2.8686,0,0,1-.8106-.09,4.3048,4.3048,0,0,1,.2832-1.5449,30.8029,30.8029,0,0,1,6.0225-9.73,55.56,55.56,0,0,1,11.5215-10.0977,23.17,23.17,0,0,1,12.85-4.332c1.98,0,2.4033.7617,2.6328,1.5615a3.4451,3.4451,0,0,0,1.8545,2.4444C799.89,161.3218,797.437,163.6207,794.6733,166.108Z" fill="url(#b493d01d-a6d2-4e15-83cf-1fcd5da70a46)"/></g></g></svg>