<svg xmlns="http://www.w3.org/2000/svg" viewBox="0 0 329 402"><path d="M329,127.4c0-0.3-0.1-0.5-0.1-0.8c0-0.2-0.1-0.5-0.1-0.7c-0.1-0.3-0.2-0.6-0.2-0.9c0-0.2-0.1-0.3-0.1-0.5 c-0.1-0.3-0.2-0.6-0.3-0.9c-0.1-0.2-0.1-0.3-0.2-0.5c-0.1-0.3-0.2-0.5-0.4-0.7c-0.1-0.2-0.2-0.4-0.3-0.6c-0.1-0.2-0.2-0.3-0.3-0.5 c-0.1-0.3-0.3-0.5-0.5-0.7c0-0.1-0.1-0.1-0.1-0.2c-0.5-0.7-1.1-1.4-1.7-2L210.8,4.4C208,1.6,204.2,0,200.2,0H50.1 C22.4,0,0,22.4,0,50.1v301.8C0,379.6,22.4,402,50.1,402h228.8c27.7,0,50.1-22.5,50.1-50.1v-223C329.1,128.4,329,127.9,329,127.4z M278.9,372H50.1C39,372,30,363,30,351.9V50.1C30,39,39,30,50.1,30h135.1v63.8c0,27.7,22.4,50.1,50.1,50.1H299v208 C299,363,290,372,278.9,372z" fill="#4fc9da"/><path d="M175.1,172.4c-5.9-5.9-15.4-5.9-21.2,0l-54.5,54.5c-0.1,0.1-0.2,0.2-0.4,0.4c-5.8,6-5.6,15.5,0.4,21.2 c6,5.8,15.5,5.6,21.2-0.4l28.9-28.8V312c0,8.3,6.7,15,15,15c8.3,0,15-6.7,15-15v-92.8l28.8,28.8c2.8,2.8,6.6,4.4,10.6,4.4 c4,0,7.8-1.6,10.6-4.4c5.9-5.9,5.9-15.4,0-21.2L175.1,172.4z" fill="#4fc9da"/></svg>