<?xml version="1.0" encoding="utf-8"?>
<!-- Generator: Adobe Illustrator 26.4.1, SVG Export Plug-In . SVG Version: 6.00 Build 0)  -->
<svg version="1.1" id="Capa_1" xmlns="http://www.w3.org/2000/svg" xmlns:xlink="http://www.w3.org/1999/xlink" x="0px" y="0px"
	 viewBox="0 0 1366 768" style="enable-background:new 0 0 1366 768;" xml:space="preserve">
<style type="text/css">
	.st0{fill:#201F3D;}
</style>
<g>
	<path class="st0" d="M1366,0H894.3L577.6,190.9c-26.1,15.8-34.5,49.7-18.8,75.8s49.7,34.5,75.8,18.8l27.2-16.4l0,0
		c20.7-12.1,47.5-5.4,59.9,15.3c12,20,6.3,45.7-12.6,58.8L487.3,476.9c-26.1,15.8-34.5,49.7-18.8,75.8s49.7,34.6,75.8,18.8
		L1366,76.4V0z"/>
</g>
<circle class="st0" cx="247" cy="547" r="62"/>
<circle class="st0" cx="62" cy="247" r="9"/>
<circle class="st0" cx="1033.5" cy="698.5" r="6.5"/>
<polygon class="st0" points="250.8,209.4 239.5,211 237.8,199.6 230.9,200.7 232.5,212 221.1,213.7 222.2,220.6 233.5,219 
	235.2,230.4 242.1,229.3 240.5,218 251.9,216.3 "/>
<polygon class="st0" points="443,113.2 434.9,105 443,96.9 438.1,92 429.9,100.1 421.8,92 416.9,96.9 425,105 416.9,113.2 
	421.8,118.1 429.9,110 438.1,118.1 "/>
<g>
	<path class="st0" d="M1366,179L754.2,547.8c-26.1,15.8-34.5,49.7-18.8,75.8s49.7,34.6,75.8,18.8L1366,308V179z"/>
	<path class="st0" d="M859.1,382.6c20.8-12.5,47.8-5.8,60.4,15c11.2,18.6,7,42.1-8.8,55.9L1366,179V76.4L858.5,382.2l0.3,0.5
		C858.9,382.7,859,382.6,859.1,382.6z"/>
</g>
</svg>
